<svg xmlns="http://www.w3.org/2000/svg" viewBox="0 0 48 48"><defs><style>.cls-1{fill:#231f20;opacity:0.3;}</style></defs><g id="Layer_2" data-name="Layer 2"><path class="cls-1" d="M32.33,24.32c1.45-1.62,3.25-3.64,3.25-7.15,0-6.39-5.87-9.83-11.4-9.83s-11.4,3.44-11.4,9.83c0,3.51,1.81,5.53,3.25,7.15s2.37,2.65,2.4,4.91a1.7,1.7,0,0,0,.19,2.69,1.7,1.7,0,0,0,0,2.83v1.31a1.88,1.88,0,0,0,1.88,1.88h.7a2.17,2.17,0,0,0,2.15,1.94h1.17a2.18,2.18,0,0,0,2.16-1.94h.78a1.88,1.88,0,0,0,1.88-1.88V34.79a1.73,1.73,0,0,0,.81-1.45,1.71,1.71,0,0,0-.76-1.42,1.71,1.71,0,0,0,.76-1.42,1.69,1.69,0,0,0-.47-1.17h.26C29.93,27,31,25.82,32.33,24.32Zm-8.15-13c2.06,0,7.4,1,7.4,5.83,0,2-.94,3-2.23,4.48-1.45,1.62-3.21,3.63-3.38,7.13H22.4c-.18-3.5-1.94-5.51-3.38-7.13-1.3-1.45-2.24-2.5-2.24-4.48C16.78,12.38,22.12,11.34,24.18,11.34Z"/></g></svg>