<?xml version="1.0" encoding="UTF-8"?><svg id="Layer_2" xmlns="http://www.w3.org/2000/svg" viewBox="0 0 339.41 293.29"><defs><style>.cls-1{fill:#fcc075;}.cls-2{fill:#e19090;}.cls-3{fill:#38a7f8;}</style></defs><g id="underlayer"><path id="Combined-Shape" class="cls-3" d="m338.85,243.89c0,9.02-7.31,16.33-16.33,16.33h-192.18l-28.29,28.29c-6.38,6.38-16.71,6.38-23.09,0l-28.29-28.29h-27.35c-9.02,0-16.33-7.31-16.33-16.33v-97.53c0-9.02,7.31-16.33,16.33-16.33h26.18l22.71,22.71c6.38,6.38,16.71,6.38,23.09,0l22.71-22.71h204.52c9.02,0,16.33,7.31,16.33,16.33v97.53Z"/><g id="Combined-Shape-2"><path class="cls-1" d="m182.85,85.83v28.06c0,9.02-7.31,16.33-16.33,16.33h-43.18l-28.29,28.29c-6.38,6.38-16.71,6.38-23.09,0l-28.29-28.29h-27.35c-9.02,0-16.33-7.31-16.33-16.33V16.36C0,7.34,7.31.03,16.33.03h26.18l22.71,22.71c6.38,6.38,16.71,6.38,23.09,0L111,.03h55.52c9.02,0,16.33,7.31,16.33,16.33v25.22c-8.83-3.55-16-6.26-21.51-8.15-7.43-2.55-11.14,1.5-11.14,12.15v36.27c0,10.64,3.71,14.69,11.14,12.15,5.51-1.89,12.68-4.61,21.51-8.15Z"/></g><path id="Combined-Shape-3" class="cls-2" d="m339.41,113.73c0,8.97-7.27,16.25-16.25,16.25h-124.01c-8.97,0-16.25-7.27-16.25-16.25v-26.25c-7.14,2.77-16.84,4.95-21.58,6.54-7.61,2.55-11.41-1.51-11.41-12.19v-36.31c0-10.68,3.8-14.74,11.41-12.19,4.75,1.59,14.44,3.77,21.58,6.54v-23.63c0-8.97,7.27-16.25,16.25-16.25h124.01c8.97,0,16.25,7.27,16.25,16.25v97.48Z"/></g></svg>