<?xml version="1.0" encoding="UTF-8"?>
<svg width="80px" height="82px" viewBox="0 0 80 82" version="1.1" xmlns="http://www.w3.org/2000/svg" xmlns:xlink="http://www.w3.org/1999/xlink">
    <!-- Generator: sketchtool 63.1 (101010) - https://sketch.com -->
    <title>910AF940-A58E-4BA8-ABE6-CE54902AD97C</title>
    <desc>Created with sketchtool.</desc>
    <defs>
        <polygon id="path-1" points="0 0.849182759 79.8571429 0.849182759 79.8571429 82 0 82"></polygon>
    </defs>
    <g id="Mockup" stroke="none" stroke-width="1" fill="none" fill-rule="evenodd" opacity="0.4">
        <g id="CDM-Blockly-paired" transform="translate(-37.000000, -601.000000)">
            <g id="Group-12" transform="translate(37.000000, 601.000000)">
                <g id="Group-3">
                    <mask id="mask-2" fill="white">
                        <use xlink:href="#path-1"></use>
                    </mask>
                    <g id="Clip-2"></g>
                    <path d="M62.6694286,77.964769 C54.7694286,77.964769 48.3408571,71.5251138 48.3408571,63.608631 C48.3408571,62.692769 48.4465714,61.8055276 48.6122857,60.9354586 C48.6465714,60.8038034 48.6637143,60.6521138 48.7037143,60.5261828 L48.8551429,60.2199414 L48.8551429,60.0510793 C49.098,59.0636655 49.4665714,58.1363552 49.8951429,57.2405276 C50.1237143,56.7825966 50.3522857,56.3218034 50.6294286,55.889631 C50.7294286,55.723631 50.8351429,55.5662172 50.9437143,55.4059414 C53.5351429,51.6967 57.818,49.2553552 62.6694286,49.2553552 C70.5722857,49.2553552 77.0008571,55.6950103 77.0008571,63.608631 C77.0008571,71.5251138 70.5722857,77.964769 62.6694286,77.964769 L62.6694286,77.964769 Z M62.6694286,3.71125172 C70.5722857,3.71125172 77.0008571,10.1509069 77.0008571,18.0645276 C77.0008571,25.9810103 70.5722857,32.4206655 62.6694286,32.4206655 C56.9122857,32.4206655 51.9665714,28.9804586 49.6922857,24.0577 C49.4894286,23.5253552 49.3237143,23.0073207 49.2065714,22.5179069 C48.7351429,21.0697 48.4951429,19.5728379 48.4951429,18.0645276 C48.4951429,17.7640103 48.518,17.4663552 48.538,17.1715621 L48.558,16.9053897 L48.5437143,16.7765966 C48.5322857,16.6649759 48.5151429,16.5590793 48.5037143,16.4503207 C49.318,9.30087241 55.3208571,3.71125172 62.6694286,3.71125172 L62.6694286,3.71125172 Z M40.8294286,25.1882172 C40.8294286,25.757769 40.3637143,26.2242862 39.7951429,26.2242862 C39.2237143,26.2242862 38.758,25.757769 38.758,25.1882172 L38.758,4.55842414 C38.758,3.98601034 39.2237143,3.5194931 39.7951429,3.5194931 C40.3637143,3.5194931 40.8294286,3.98601034 40.8294286,4.55842414 L40.8294286,25.1882172 Z M17.1865714,77.964769 C9.28371429,77.964769 2.85514286,71.5251138 2.85514286,63.608631 C2.85514286,55.6950103 9.28371429,49.2553552 17.1865714,49.2553552 C18.7065714,49.2553552 20.1465714,49.5558724 21.5237143,49.9994931 C27.8265714,53.2965966 29.5465714,56.9171138 30.3122857,60.0539414 L30.3808571,60.3315621 C30.8551429,61.782631 31.0951429,63.2794931 31.0951429,64.7849414 C31.0951429,65.0854586 31.0722857,65.3831138 31.0522857,65.6779069 L31.0322857,65.9440793 L31.0465714,66.0728724 C31.0722857,66.3161483 31.1065714,66.5508379 31.1322857,66.7941138 C29.6808571,73.1765276 23.9922857,77.964769 17.1865714,77.964769 L17.1865714,77.964769 Z M2.85514286,18.0645276 C2.85514286,10.1509069 9.28371429,3.71125172 17.1865714,3.71125172 C25.0894286,3.71125172 31.518,10.1509069 31.518,18.0645276 C31.518,18.9460448 31.4094286,19.7989414 31.258,20.6375276 C31.2008571,20.9351828 31.1208571,21.2328379 31.0465714,21.527631 C29.4894286,27.7669414 23.8894286,32.4206655 17.1865714,32.4206655 C9.28371429,32.4206655 2.85514286,25.9810103 2.85514286,18.0645276 L2.85514286,18.0645276 Z M62.6694286,46.3932862 C62.6351429,46.3932862 62.6037143,46.3961483 62.5694286,46.3990103 C64.358,44.0063207 64.3837143,40.3829414 63.6094286,37.9530448 C63.238,36.7738724 62.6494286,35.9095276 62.0694286,35.2512517 C62.2694286,35.2569759 62.4665714,35.2827345 62.6694286,35.2827345 C72.1465714,35.2827345 79.858,27.5608724 79.858,18.0645276 C79.858,8.57104483 72.1465714,0.849182759 62.6694286,0.849182759 C56.1208571,0.849182759 50.418,4.53838966 47.518,9.95056207 C46.5265714,5.15373448 44.898,1.44735517 41.718,0.915010345 C41.718,0.915010345 40.8751429,0.849182759 40.2094286,0.849182759 L38.8637143,0.849182759 C35.2751429,0.849182759 33.4865714,4.82745862 32.4322857,10.1451828 C29.5637143,4.62997586 23.8122857,0.849182759 17.1865714,0.849182759 C7.70942857,0.849182759 -0.002,8.57104483 -0.002,18.0645276 C-0.002,27.5608724 7.70942857,35.2827345 17.1865714,35.2827345 C17.5637143,35.2827345 17.9322857,35.2483897 18.3037143,35.2254931 C15.2922857,37.3978034 15.0551429,41.9885621 15.978,44.8964241 C16.1637143,45.4745621 16.4094286,45.9697 16.6694286,46.4190448 C7.43228571,46.6938034 -0.002,54.2897345 -0.002,63.608631 C-0.002,73.1049759 7.70942857,80.8268379 17.1865714,80.8268379 C23.4694286,80.8268379 28.9608571,77.4238379 31.958,72.3665621 C32.9351429,77.4295621 34.5722857,81.3792172 37.8722857,81.9344586 C37.8722857,81.9344586 38.7122857,82.0002862 39.3837143,82.0002862 L40.7237143,82.0002862 C44.5922857,82.0002862 46.3694286,77.386631 47.3894286,71.4564241 C50.2437143,77.0117 56.0151429,80.8268379 62.6694286,80.8268379 C72.1465714,80.8268379 79.858,73.1049759 79.858,63.608631 C79.858,54.1151483 72.1465714,46.3932862 62.6694286,46.3932862 L62.6694286,46.3932862 Z" id="Fill-1" fill="#231F20" mask="url(#mask-2)"></path>
                </g>
                <path d="M59.9289791,20.4533925 C59.0558022,21.2466709 57.9429296,22.5592898 58.1112873,23.9689283 C58.3880786,26.2374762 59.395371,30.5091947 59.395371,30.5091947 L62.1575777,31 L63.8896639,21.2266963 C64.4546607,21.0098288 64.9454661,20.6645529 65.3449588,20.225111 C66.1268231,21.109702 67.4908053,22.3395688 68.9660748,22.1597971 C71.2374762,21.8830057 75.5091947,20.8757134 75.5091947,20.8757134 L76,18.1163602 L66.1068484,16.3614458 C65.8814204,15.7450856 65.5076094,15.2171845 65.0168041,14.7920101 C65.9071021,14.0443881 67.3081801,12.6062143 67.1169943,11.0310717 C66.8402029,8.75967026 65.8329106,4.48795181 65.8329106,4.48795181 L63.0735574,4 L61.2901078,14.0729233 C60.65948,14.2897907 60.1201649,14.6464807 59.6892834,15.1344325 C58.9159797,14.2441344 57.5320228,12.9743183 56.0310717,13.15409 C53.7596703,13.4308814 49.4879518,14.4410273 49.4879518,14.4410273 L49,17.2003805 L58.9530755,18.9638554 C59.1613824,19.5402663 59.4895371,20.0424857 59.9289791,20.4533925" id="Fill-4" fill="#231F20"></path>
                <path d="M64.1844433,60.0951518 C64.8259989,59.0997336 65.6890783,57.3793287 65.076292,55.9610016 C64.1614278,53.8435802 61.9720831,50 61.9720831,50 L59.1613213,50.3164624 L60.2919552,60.4288759 C59.7251998,60.8316462 59.2389984,61.3322323 58.9541822,61.973788 C57.9386255,61.3494939 56.3074054,60.5957379 54.9610016,61.1740011 C52.8435802,62.0888652 49,64.2810868 49,64.2810868 L49.3135855,67.0918487 L59.5295685,65.94683 C59.8978157,66.3985083 60.3351092,66.7782632 60.8702184,67.0256793 C60.2372936,68.041236 59.4691529,69.6839638 60.0560469,71.0389984 C60.970911,73.1564198 63.1631327,77 63.1631327,77 L65.9710176,76.6864145 L64.8375067,66.5308471 C65.2690464,66.1913692 65.6286628,65.7857219 65.8847096,65.2908897 C66.8772509,65.9324454 68.6120405,66.8127864 70.0389984,66.1942461 C72.1564198,65.2822589 76,63.0900373 76,63.0900373 L75.6864145,60.2792754 L65.6315397,61.4041556 C65.2604156,60.8546617 64.782845,60.3943527 64.1844433,60.0951518" id="Fill-6" fill="#231F20"></path>
                <path d="M29,24.5581395 L20.8110465,18.2994186 C20.8168605,18.2180233 20.8575581,18.1511628 20.8575581,18.0726744 C20.8575581,17.5726744 20.744186,17.1046512 20.5755814,16.6656977 C21.7325581,16.3982558 23.6337209,15.75 24.1889535,14.255814 C25.002907,12.0726744 26.0930233,7.73546512 26.0930233,7.73546512 L23.8226744,6 L17.497093,14.2703488 C17.3110465,14.2412791 17.1424419,14.1598837 16.9476744,14.1598837 C16.497093,14.1598837 16.0843023,14.2761628 15.6802326,14.4156977 C15.4273256,13.2645349 14.7819767,11.2906977 13.252907,10.7209302 C11.0726744,9.90697674 6.73546512,8.81976744 6.73546512,8.81976744 L5,11.0872093 L13.1802326,17.3459302 C13.1337209,17.5901163 13.0348837,17.8139535 13.0348837,18.0726744 C13.0348837,18.5436047 13.1482558,18.9854651 13.3052326,19.4069767 C12.1395349,19.7151163 10.494186,20.380814 9.98546512,21.744186 C9.17151163,23.9273256 8.08430233,28.2645349 8.08430233,28.2645349 L10.3517442,30 L16.5465116,21.9011628 C16.6831395,21.9156977 16.8052326,21.9825581 16.9476744,21.9825581 C17.4709302,21.9825581 17.9709302,21.869186 18.4273256,21.6831395 C18.744186,22.8401163 19.4069767,24.4273256 20.744186,24.9244186 C22.9273256,25.7383721 27.2645349,26.8255814 27.2645349,26.8255814 L29,24.5581395 Z" id="Fill-8" fill="#231F20"></path>
                <path d="M19.8735245,60.6694401 C19.376054,60.2478075 18.7689713,59.9835844 18.1000562,59.8599056 C18.4288926,58.7496065 18.7661608,56.9028559 17.8077572,55.7419609 C16.3715571,54.0048347 13.2658797,51 13.2658797,51 L10.7166948,52.0597032 L14.5250141,61.2006971 C14.1034289,61.7319541 13.8392355,62.364403 13.7521079,63.0699348 C12.6306914,62.7523049 10.8628443,62.4712166 9.74423834,63.3959973 C8.00730748,64.8323589 5,67.9383854 5,67.9383854 L6.0623946,70.487857 L15.3878583,66.6004048 C15.8431703,66.9067911 16.3490725,67.1007421 16.9111861,67.1850686 C16.5851602,68.3009894 16.2731872,70.1111986 17.2175379,71.2580391 C18.6537381,72.9951653 21.7594154,76 21.7594154,76 L24.3114109,74.9374859 L20.455312,65.6840567 C20.7616639,65.2624241 20.9640247,64.7901956 21.0764474,64.2589386 C22.1753794,64.5934338 24.0725126,64.9644704 25.2585722,63.9862829 C26.9926925,62.5499213 30,59.4410839 30,59.4410839 L28.9376054,56.8916123 L19.8735245,60.6694401 Z" id="Fill-10" fill="#231F20"></path>
            </g>
        </g>
    </g>
</svg>