<?xml version="1.0" encoding="utf-8"?>
<!-- Generator: Adobe Illustrator 26.0.3, SVG Export Plug-In . SVG Version: 6.00 Build 0)  -->
<svg version="1.1" id="레이어_1" xmlns="http://www.w3.org/2000/svg" xmlns:xlink="http://www.w3.org/1999/xlink" x="0px"
	 y="0px" viewBox="0 0 30 30" style="enable-background:new 0 0 30 30;" xml:space="preserve">
<style type="text/css">
	.st0{fill-rule:evenodd;clip-rule:evenodd;fill:#FCC075;}
	.st1{fill-rule:evenodd;clip-rule:evenodd;fill:#FFFFFF;}
	.st2{fill:#FFFFFF;}
</style>
<desc>Created with Sketch.</desc>
<circle id="Oval-Copy-8" class="st0" cx="15" cy="15" r="15"/>
<g>
	<g>
		<circle class="st1" cx="22" cy="9.1" r="3.6"/>
		<circle class="st1" cx="22" cy="20.9" r="3.6"/>
	</g>
	<g>
		<path class="st1" d="M11.2,18.8H5.3c-0.5,0-0.8-0.4-0.8-0.8V12c0-0.5,0.4-0.8,0.8-0.8h5.9c0.5,0,0.8,0.4,0.8,0.8V18
			C12.1,18.4,11.7,18.8,11.2,18.8z"/>
		<g>
			<g>
				<path class="st2" d="M16.5,18.8c-0.1,0-0.2,0-0.2-0.1L11.4,16c-0.2-0.1-0.3-0.4-0.2-0.7c0.1-0.2,0.4-0.3,0.7-0.2l4.9,2.8
					c0.2,0.1,0.3,0.4,0.2,0.7C16.9,18.8,16.7,18.8,16.5,18.8z"/>
				<g>
					<polygon class="st2" points="15.4,19.4 18.4,19.4 16.9,16.8 					"/>
				</g>
			</g>
			<g>
				<path class="st2" d="M11.6,14.9c-0.2,0-0.3-0.1-0.4-0.3c-0.1-0.2,0-0.5,0.2-0.7l4.9-2.8c0.2-0.1,0.5-0.1,0.7,0.2
					c0.1,0.2,0,0.5-0.2,0.7l-4.9,2.8C11.8,14.9,11.7,14.9,11.6,14.9z"/>
				<g>
					<polygon class="st2" points="16.9,13.2 18.4,10.6 15.4,10.6 					"/>
				</g>
			</g>
		</g>
	</g>
</g>
</svg>
