<?xml version="1.0" encoding="utf-8"?>
<!-- Generator: Adobe Illustrator 26.0.3, SVG Export Plug-In . SVG Version: 6.00 Build 0)  -->
<svg version="1.1" id="레이어_1" xmlns="http://www.w3.org/2000/svg" xmlns:xlink="http://www.w3.org/1999/xlink" x="0px"
	 y="0px" viewBox="0 0 30 30" style="enable-background:new 0 0 30 30;" xml:space="preserve">
<style type="text/css">
	.st0{fill-rule:evenodd;clip-rule:evenodd;fill:#A56B6B;}
	.st1{fill:#FFFFFF;}
	.st2{fill:none;}
</style>
<desc>Created with Sketch.</desc>
<g id="Mockup">
	<g id="neutral-starting-page---disconnected-senior" transform="translate(-160.000000, -523.000000)">
		<g id="icon_x2F_loops" transform="translate(160.000000, 523.000000)">
			<g id="loops-icon">
				<circle id="Oval-Copy-8" class="st0" cx="15" cy="15" r="15"/>
				
					<g id="ic_sync_black_24px" transform="translate(15.000000, 16.000000) rotate(-270.000000) translate(-15.000000, -16.000000) translate(3.000000, 4.000000)">
					<path id="Shape" class="st1" d="M12,4V1L8,5l4,4V6c3.3,0,6,2.7,6,6c0,1-0.2,2-0.7,2.8l1.5,1.5C19.5,15,20,13.6,20,12
						C20,7.6,16.4,4,12,4z M12,18c-3.3,0-6-2.7-6-6c0-1,0.2-2,0.7-2.8L5.2,7.7C4.5,9,4,10.4,4,12c0,4.4,3.6,8,8,8v3l4-4l-4-4V18z"/>
					<polygon id="Shape_00000013175764109577066780000017024789784566762425_" class="st2" points="0,0 24,0 24,24 0,24 					"/>
				</g>
			</g>
		</g>
	</g>
</g>
</svg>
