<svg width="44" height="38" viewBox="0 0 44 38" fill="none" xmlns="http://www.w3.org/2000/svg">
<path d="M18.1865 6C19.7261 3.33333 23.5751 3.33333 25.1147 6L39.8372 31.5C41.3768 34.1667 39.4523 37.5 36.3731 37.5H6.9282C3.849 37.5 1.9245 34.1667 3.4641 31.5L18.1865 6Z" fill="#FFDA57"/>
<path d="M19.7559 15.863C19.7648 15.8361 19.7783 15.8091 19.7963 15.7822C19.8052 15.7642 19.8142 15.7463 19.8232 15.7283C19.8322 15.7104 19.8367 15.6969 19.8367 15.6879C19.8816 15.4724 19.9175 15.2883 19.9444 15.1357C19.9714 14.974 20.0073 14.8259 20.0522 14.6912C20.1061 14.5565 20.1824 14.4307 20.2812 14.314C20.38 14.1973 20.5326 14.0715 20.7392 13.9368C20.8379 13.874 20.9188 13.8246 20.9816 13.7887C21.0535 13.7438 21.1208 13.7079 21.1837 13.6809C21.2465 13.654 21.3139 13.636 21.3857 13.627C21.4575 13.6091 21.5473 13.6001 21.6551 13.6001C21.8257 13.6001 21.9829 13.6181 22.1265 13.654C22.2702 13.6809 22.4229 13.7213 22.5845 13.7752C22.6204 13.8021 22.6788 13.856 22.7596 13.9368C22.8404 14.0177 22.9213 14.103 23.0021 14.1928C23.0919 14.2826 23.1772 14.3679 23.258 14.4487C23.3388 14.5295 23.3927 14.5879 23.4197 14.6238C23.4376 14.6507 23.4601 14.6956 23.487 14.7585C23.5139 14.8124 23.5409 14.8708 23.5678 14.9336C23.5948 14.9965 23.6172 15.0593 23.6352 15.1222C23.6531 15.185 23.6621 15.2344 23.6621 15.2704V17.2908C23.5274 17.641 23.4511 17.9868 23.4331 18.328C23.4152 18.6692 23.3882 19.015 23.3523 19.3652C23.3254 19.5807 23.2805 19.8007 23.2176 20.0252C23.1637 20.2497 23.1143 20.4787 23.0694 20.7122V21.3857C23.0694 21.4395 23.056 21.5608 23.029 21.7493C23.0111 21.9379 22.9886 22.14 22.9617 22.3555C22.9347 22.571 22.9078 22.7731 22.8809 22.9616C22.8539 23.1412 22.836 23.249 22.827 23.2849C22.818 23.4016 22.8 23.5992 22.7731 23.8776C22.7551 24.156 22.7327 24.4523 22.7058 24.7666C22.6788 25.0809 22.6519 25.3772 22.6249 25.6556C22.598 25.925 22.5845 26.1136 22.5845 26.2213C22.5576 26.3381 22.5082 26.4728 22.4364 26.6254C22.3645 26.7691 22.2972 26.8948 22.2343 27.0026H22.1265C22.0098 27.0026 21.9155 26.9756 21.8437 26.9218C21.7718 26.8679 21.7135 26.8005 21.6686 26.7197C21.6237 26.6299 21.5878 26.5356 21.5608 26.4368C21.5429 26.3381 21.5294 26.2438 21.5204 26.154C21.4755 25.9923 21.4396 25.8217 21.4126 25.6421C21.3947 25.4535 21.3767 25.265 21.3588 25.0764C21.3498 24.8788 21.3363 24.6858 21.3184 24.4972C21.3094 24.3086 21.2914 24.129 21.2645 23.9584C21.1747 23.5543 21.0849 23.1457 20.9951 22.7326C20.9053 22.3196 20.82 21.902 20.7392 21.4799C20.7392 21.444 20.7302 21.3497 20.7122 21.1971C20.6943 21.0444 20.6763 20.8873 20.6583 20.7256C20.6494 20.555 20.6359 20.3979 20.6179 20.2542C20.6 20.1015 20.591 20.0028 20.591 19.9579C20.564 19.8052 20.5191 19.666 20.4563 19.5403C20.4024 19.4146 20.362 19.2844 20.3351 19.1497C20.3351 19.1227 20.3261 19.0778 20.3081 19.015C20.2991 18.9431 20.2902 18.8713 20.2812 18.7995C20.2722 18.7186 20.2632 18.6468 20.2542 18.5839C20.2453 18.5211 20.2408 18.4807 20.2408 18.4627C20.2408 18.4537 20.2363 18.4447 20.2273 18.4358C20.2093 18.4178 20.2004 18.3954 20.2004 18.3684C20.1824 18.3415 20.1689 18.3145 20.16 18.2876C20.0791 18.0811 20.0253 17.8745 19.9983 17.668C19.9804 17.4614 19.9489 17.2504 19.904 17.0349C19.904 17.0169 19.895 16.9855 19.8771 16.9406C19.8681 16.8867 19.8501 16.8329 19.8232 16.779C19.8052 16.7251 19.7873 16.6757 19.7693 16.6308C19.7603 16.5769 19.7559 16.541 19.7559 16.5231V15.863ZM20.2408 31.9999C20.2408 31.7574 20.2767 31.5239 20.3485 31.2994C20.4204 31.066 20.5236 30.8594 20.6583 30.6798C20.793 30.4913 20.9592 30.3431 21.1567 30.2353C21.3633 30.1276 21.6012 30.0737 21.8706 30.0737C22.1131 30.0737 22.3376 30.1186 22.5441 30.2084C22.7507 30.2892 22.9302 30.406 23.0829 30.5586C23.2445 30.7113 23.3703 30.8954 23.4601 31.1109C23.5499 31.3174 23.5948 31.5464 23.5948 31.7978C23.5948 32.0493 23.5409 32.2738 23.4331 32.4713C23.3343 32.6599 23.1996 32.8171 23.029 32.9428C22.8584 33.0685 22.6609 33.1673 22.4364 33.2391C22.2208 33.302 21.9963 33.3334 21.7629 33.3334C21.5833 33.3334 21.4037 33.2975 21.2241 33.2256C21.0445 33.1538 20.8828 33.0595 20.7392 32.9428C20.5955 32.8171 20.4743 32.6734 20.3755 32.5117C20.2857 32.3501 20.2408 32.1795 20.2408 31.9999Z" fill="black"/>
</svg>
