<?xml version="1.0" encoding="UTF-8"?>
<svg width="28px" height="14px" viewBox="0 0 28 14" version="1.1" xmlns="http://www.w3.org/2000/svg" xmlns:xlink="http://www.w3.org/1999/xlink">
    <title>unreadable_battery</title>
    <g id="Mockup" stroke="none" stroke-width="1" fill="none" fill-rule="evenodd">
        <g id="unreadable_battery" transform="translate(0.000000, 0.000000)" fill="#60C644" fill-rule="nonzero">
            <path d="M16.8,-7 L16.8,-4.2 L19.138,-4.2 C20.1113333,-4.2 20.9195873,-3.43809524 20.9943568,-2.48269085 L21,-2.338 L21,19.138 C21,20.1113333 20.2380952,20.9195873 19.2705971,20.9943568 L19.124,21 L8.862,21 C7.88866667,21 7.0804127,20.2380952 7.00564324,19.2705971 L7,19.124 L7,-2.338 C7,-3.31133333 7.76190476,-4.1195873 8.71730915,-4.19435676 L8.862,-4.2 L11.2,-4.2 L11.2,-7 L16.8,-7 Z M14.8,-5 L13.2,-5 L13.2,-4.2 C13.2,-3.1456382 12.3841222,-2.28183488 11.3492623,-2.20548574 L11.2,-2.2 L9,-2.2 L9,19 L19,19 L19,-2.2 L16.8,-2.2 C15.7456382,-2.2 14.8818349,-3.01587779 14.8054857,-4.05073766 L14.8,-4.2 L14.8,-5 Z" id="Shape" transform="translate(14.000000, 7.000000) rotate(-270.000000) translate(-14.000000, -7.000000) "></path>
            <path d="M12.996,8.98 C13.056,7.588 13.44,7.42 14.316,6.628 C14.796,6.184 15.108,5.512 15.108,4.9 C15.108,3.652 14.148,2.5 12.408,2.5 C10.752,2.5 9.564,3.544 9.576,5.104 L11.112,5.104 C11.124,4.396 11.628,3.964 12.372,3.964 C12.984,3.964 13.5,4.3 13.5,4.888 C13.5,5.404 13.092,5.668 12.624,6.088 C11.94,6.7 11.412,7.36 11.412,8.812 L11.412,8.98 L12.996,8.98 Z M12.228,11.668 C12.792,11.668 13.26,11.224 13.26,10.66 C13.26,10.096 12.792,9.652 12.228,9.652 C11.676,9.652 11.232,10.096 11.232,10.648 C11.232,11.2 11.676,11.668 12.228,11.668 Z" id="?"></path>
        </g>
    </g>
</svg>