<?xml version="1.0" encoding="utf-8"?>
<!-- Generator: Adobe Illustrator 26.0.3, SVG Export Plug-In . SVG Version: 6.00 Build 0)  -->
<svg version="1.1" id="레이어_1" xmlns="http://www.w3.org/2000/svg" xmlns:xlink="http://www.w3.org/1999/xlink" x="0px"
	 y="0px" viewBox="0 0 120 120" style="enable-background:new 0 0 120 120;" xml:space="preserve">
<style type="text/css">
	.st0{opacity:0.3;fill-rule:evenodd;clip-rule:evenodd;}
	.st1{opacity:0.3;}
</style>
<g>
	<path class="st0" d="M79.1,8.6v7.6v22.1c-1.9-2-5.3-3-8.9-2.3c-4.9,1-8.3,4.8-7.5,8.5c0.8,3.7,5.4,5.8,10.3,4.8
		c4.4-0.9,7.6-4.1,7.6-7.3l0.1-0.1v-26l25.7-5.4v21.8c-1.9-2-5.3-3-8.9-2.3c-4.9,1-8.3,4.8-7.5,8.5c0.8,3.7,5.4,5.8,10.3,4.8
		c4.4-0.9,7.6-4.1,7.6-7.3l0.1-0.1V10.1V2.5L79.1,8.6z"/>
	<path class="st1" d="M99.3,52H39l17.6-30.5c1.2-2.1,0.5-4.8-1.6-6c-2.1-1.2-4.8-0.5-6,1.6L28.9,52h-8.2c-8,0-14.5,6.5-14.5,14.5
		v36.4c0,8,6.5,14.5,14.5,14.5h78.5c8,0,14.5-6.5,14.5-14.5V66.5C113.8,58.5,107.3,52,99.3,52z M33.1,98.1
		c-6.8,0-12.3-5.5-12.3-12.3c0-6.8,5.5-12.3,12.3-12.3c6.8,0,12.3,5.5,12.3,12.3C45.4,92.6,39.9,98.1,33.1,98.1z M86.9,98.1
		c-6.8,0-12.3-5.5-12.3-12.3c0-6.8,5.5-12.3,12.3-12.3c6.8,0,12.3,5.5,12.3,12.3C99.2,92.6,93.7,98.1,86.9,98.1z"/>
</g>
</svg>
