<?xml version="1.0" encoding="utf-8"?>
<!-- Generator: Adobe Illustrator 26.0.3, SVG Export Plug-In . SVG Version: 6.00 Build 0)  -->
<svg version="1.1" id="레이어_1" xmlns="http://www.w3.org/2000/svg" xmlns:xlink="http://www.w3.org/1999/xlink" x="0px"
	 y="0px" viewBox="0 0 120 120" style="enable-background:new 0 0 120 120;" xml:space="preserve">
<style type="text/css">
	.st0{opacity:0.3;}
</style>
<g>
	<g>
		<path class="st0" d="M92.3,50.8C92.3,50.8,92.3,50.8,92.3,50.8c3.7,0,6.7-2.4,7.7-5.7l-15.5,0C85.6,48.4,88.7,50.8,92.3,50.8z"/>
		<path class="st0" d="M92.3,1.8c0,0-0.1,0-0.1,0C82.6,1.8,74.9,9.6,75,19.2c0,3.2,0.9,6.3,2.5,8.9c0.3,0.4,0.6,0.9,0.9,1.3l0,0
			c0,0,0.1,0.1,0.1,0.1c0.6,0.9,4.4,6.3,6,13.3l16-0.1c1.4-7,5.2-12.5,5.8-13.4c0,0,0.1-0.1,0.1-0.1l0,0l0,0
			c0.3-0.4,0.6-0.8,0.8-1.3c1.5-2.6,2.4-5.6,2.4-8.9C109.5,9.4,101.8,1.8,92.3,1.8z"/>
	</g>
	<path class="st0" d="M99.3,52.8H39l17.6-30.5c1.2-2.1,0.5-4.8-1.6-6s-4.8-0.5-6,1.6L28.9,52.8h-8.2c-8,0-14.5,6.5-14.5,14.5v36.4
		c0,8,6.5,14.5,14.5,14.5h78.5c8,0,14.5-6.5,14.5-14.5V67.3C113.8,59.3,107.3,52.8,99.3,52.8z M33.1,98.9c-6.8,0-12.3-5.5-12.3-12.3
		c0-6.8,5.5-12.3,12.3-12.3c6.8,0,12.3,5.5,12.3,12.3C45.4,93.4,39.9,98.9,33.1,98.9z M86.9,98.9c-6.8,0-12.3-5.5-12.3-12.3
		c0-6.8,5.5-12.3,12.3-12.3c6.8,0,12.3,5.5,12.3,12.3C99.2,93.4,93.7,98.9,86.9,98.9z"/>
</g>
</svg>
