<?xml version="1.0" encoding="UTF-8"?><svg xmlns="http://www.w3.org/2000/svg" viewBox="0 0 24.87 33.69"><defs><style>.d{fill:none;stroke-linejoin:round;}.d,.e{stroke:#6d6e71;stroke-width:1.5px;}.e{fill:#fff;stroke-linecap:round;stroke-miterlimit:10;}</style></defs><g id="a"/><g id="b"><g id="c"><path class="d" d="M8.6,.75L.75,8.6V31.21c0,.96,.77,1.73,1.73,1.73H22.39c.96,0,1.73-.77,1.73-1.73V2.48c0-.96-.77-1.73-1.73-1.73H8.6Z"/><path class="d" d="M.75,8.6H6.87c.96,0,1.73-.77,1.73-1.73V.75L.75,8.6Z"/><line class="e" x1="5.14" y1="10.73" x2="19.73" y2="10.73"/><line class="e" x1="5.14" y1="14.19" x2="19.73" y2="14.19"/><line class="e" x1="16.59" y1="17.64" x2="19.73" y2="17.64"/><line class="e" x1="8.53" y1="17.64" x2="14.09" y2="17.64"/><line class="e" x1="5.14" y1="21.1" x2="9.6" y2="21.1"/><line class="e" x1="5.14" y1="17.64" x2="5.97" y2="17.64"/><line class="e" x1="12.08" y1="21.1" x2="19.73" y2="21.1"/><line class="e" x1="19.73" y1="28" x2="15.27" y2="28"/><line class="e" x1="12.94" y1="28" x2="5.14" y2="28"/><line class="e" x1="5.14" y1="24.55" x2="19.73" y2="24.55"/></g></g></svg>