<?xml version="1.0" encoding="utf-8"?>
<!-- Generator: Adobe Illustrator 26.0.3, SVG Export Plug-In . SVG Version: 6.00 Build 0)  -->
<svg version="1.1" id="레이어_1" xmlns="http://www.w3.org/2000/svg" xmlns:xlink="http://www.w3.org/1999/xlink" x="0px"
	 y="0px" viewBox="0 0 120 120" style="enable-background:new 0 0 120 120;" xml:space="preserve">
<style type="text/css">
	.st0{opacity:0.3;fill-rule:evenodd;clip-rule:evenodd;}
	.st1{opacity:0.3;}
</style>
<g>
	<path class="st0" d="M90.2,6.1v7.6v22.1c-1.9-2-5.3-3-8.9-2.3c-4.9,1-8.3,4.8-7.5,8.5c0.8,3.7,5.4,5.8,10.3,4.8
		c4.4-0.9,7.6-4.1,7.6-7.3l0.1-0.1v-26l25.7-5.4v21.8c-1.9-2-5.3-3-8.9-2.3c-4.9,1-8.3,4.8-7.5,8.5c0.8,3.7,5.4,5.8,10.3,4.8
		c4.4-0.9,7.6-4.1,7.6-7.3l0.1-0.1V7.6V0L90.2,6.1z"/>
	<path class="st1" d="M76,82.6c-2-2-2-5.2,0-7.2l2.4-2.4c6.1-6.1,6.1-16.2,0-22.3l-8-8c-6.1-6.1-16.2-6.1-22.3,0l-2.4,2.4
		c-2,2-5.2,2-7.2,0L36,42.6c-6.1-6.1-16.2-6.1-22.3,0l-8,8c-6.1,6.1-6.1,16.2,0,22.3l2.4,2.4c2,2,2,5.2,0,7.2l-2.4,2.4
		c-6.1,6.1-6.1,16.2,0,22.3l8,8c6.1,6.1,16.2,6.1,22.3,0l2.4-2.4c2-2,5.2-2,7.2,0l2.4,2.4c6.1,6.1,16.2,6.1,22.3,0l8-8
		c6.1-6.1,6.1-16.2,0-22.3L76,82.6z M42,95.6c-6,0-10.8-7.4-10.8-16.6c0-9.2,4.8-16.6,10.8-16.6c6,0,10.8,7.4,10.8,16.6
		C52.9,88.2,48,95.6,42,95.6z"/>
</g>
</svg>
