<?xml version="1.0" encoding="utf-8"?>
<!-- Generator: Adobe Illustrator 26.0.3, SVG Export Plug-In . SVG Version: 6.00 Build 0)  -->
<svg version="1.1" id="레이어_1" xmlns="http://www.w3.org/2000/svg" xmlns:xlink="http://www.w3.org/1999/xlink" x="0px"
	 y="0px" viewBox="0 0 120 120" style="enable-background:new 0 0 120 120;" xml:space="preserve">
<style type="text/css">
	.st0{opacity:0.3;}
</style>
<g>
	<path class="st0" d="M82.6,81.6c-2-2-2-5.2,0-7.2l2.4-2.4c6.1-6.1,6.1-16.2,0-22.3l-8-8c-6.1-6.1-16.2-6.1-22.3,0l-2.4,2.4
		c-2,2-5.2,2-7.2,0l-2.4-2.4c-6.1-6.1-16.2-6.1-22.3,0l-8,8c-6.1,6.1-6.1,16.2,0,22.3l2.4,2.4c2,2,2,5.2,0,7.2l-2.4,2.4
		c-6.1,6.1-6.1,16.2,0,22.3l8,8c6.1,6.1,16.2,6.1,22.3,0l2.4-2.4c2-2,5.2-2,7.2,0l2.4,2.4c6.1,6.1,16.2,6.1,22.3,0l8-8
		c6.1-6.1,6.1-16.2,0-22.3L82.6,81.6z M48.7,94.6c-6,0-10.8-7.4-10.8-16.6c0-9.2,4.8-16.6,10.8-16.6c6,0,10.8,7.4,10.8,16.6
		C59.5,87.2,54.7,94.6,48.7,94.6z"/>
	<g>
		<path class="st0" d="M95,50C95,50,95,50,95,50c3.7,0,6.7-2.4,7.7-5.7l-15.5,0C88.3,47.6,91.3,50,95,50z"/>
		<path class="st0" d="M95,1c0,0-0.1,0-0.1,0c-9.5,0.1-17.2,7.9-17.2,17.4c0,3.2,0.9,6.3,2.5,8.9c0.3,0.4,0.6,0.9,0.9,1.3l0,0
			c0,0,0.1,0.1,0.1,0.1c0.6,0.9,4.4,6.3,6,13.3l16-0.1c1.4-7,5.2-12.5,5.8-13.4c0,0,0.1-0.1,0.1-0.1l0,0l0,0
			c0.3-0.4,0.6-0.8,0.8-1.3c1.5-2.6,2.4-5.6,2.4-8.9C112.2,8.7,104.5,1,95,1z"/>
	</g>
</g>
</svg>
