<?xml version="1.0" encoding="UTF-8"?><svg xmlns="http://www.w3.org/2000/svg" viewBox="0 0 40.42 35.66"><defs><style>.g{fill:none;stroke:#6d6e71;stroke-miterlimit:10;stroke-width:1.5px;}</style></defs><g id="a"/><g id="b"><g id="c"><path id="d" class="g" d="M39.6,29.16c0,1.05-.85,1.9-1.9,1.9H15.93l-3.3,3.3c-.74,.74-1.95,.74-2.69,0l-3.3-3.3H3.47c-1.05,0-1.9-.85-1.9-1.9v-11.36c0-1.05,.85-1.9,1.9-1.9h3.05l2.64,2.64c.74,.74,1.95,.74,2.69,0l2.64-2.64h23.21c1.05,0,1.9,.85,1.9,1.9v11.36Z"/><path id="e" class="g" d="M25.85,10.75v3.27c0,1.05-.85,1.9-1.9,1.9H15.12l-3.3,3.3c-.74,.74-1.95,.74-2.69,0l-3.3-3.3H2.65c-1.05,0-1.9-.85-1.9-1.9V2.66C.75,1.6,1.6,.75,2.65,.75h3.05l2.64,2.64c.74,.74,1.95,.74,2.69,0L13.68,.75h10.27c1.05,0,1.9,.85,1.9,1.9v2.94c-1.03-.41-1.86-.73-2.51-.95-.87-.3-1.3,.18-1.3,1.41v4.22c0,1.24,.43,1.71,1.3,1.41,.64-.22,1.48-.54,2.51-.95Z"/><path id="f" class="g" d="M39.67,14c0,1.05-.85,1.89-1.89,1.89h-10.03c-1.05,0-1.89-.85-1.89-1.89v-3.06c-.83,.32-1.96,.58-2.51,.76-.89,.3-1.33-.18-1.33-1.42V6.05c0-1.24,.44-1.72,1.33-1.42,.55,.19,1.68,.44,2.51,.76V2.64c0-1.05,.85-1.89,1.89-1.89h10.03c1.05,0,1.89,.85,1.89,1.89V14Z"/></g></g></svg>