<svg xmlns="http://www.w3.org/2000/svg" viewBox="0 0 48 48"><defs><style>.cls-1,.cls-2{opacity:0.3;}.cls-3,.cls-4{fill:#231f20;}.cls-4{stroke:#231f20;stroke-miterlimit:10;}</style></defs><g id="Layer_1" data-name="Layer 1"><path class="cls-1" d="M36.16,9.52a15.92,15.92,0,0,1,4.58,11.21h-4a12,12,0,0,0-20.39-8.59,11.83,11.83,0,0,0-3.53,8.46l5.1.08-7,7.81-6.8-8,4.64.07a16,16,0,0,1,27.39-11Z"/></g><g id="Layer_2" data-name="Layer 2"><g class="cls-2"><rect class="cls-3" x="15.46" y="33.19" width="2.39" height="8.32" rx="1.2" transform="translate(-15.63 12.24) rotate(-28.09)"/><rect class="cls-3" x="34.93" y="22.79" width="2.39" height="8.32" rx="1.2" transform="translate(-8.44 20.19) rotate(-28.09)"/><rect class="cls-3" x="20.4" y="28.39" width="10.71" height="5.09" rx="1.26" transform="translate(-11.53 15.77) rotate(-28.09)"/><path class="cls-4" d="M31.84,24.8c-.43-.7-.59-.88-1.67-.45s-2.77,1.07-3.9.8-1.9-1.21-3.72-.24S21.08,27,20.67,28.13s-1.87,2.14-2.83,2.8-.9.89-.56,1.64Z"/><rect class="cls-3" x="10.7" y="33.13" width="8.55" height="2.14" rx="0.39" transform="translate(-14.34 11.08) rotate(-28.09)"/><rect class="cls-3" x="16.94" y="28.35" width="16.03" height="2.14" rx="0.39" transform="translate(-10.91 15.22) rotate(-28.09)"/><rect class="cls-3" x="30.17" y="22.74" width="8.55" height="2.14" rx="0.39" transform="translate(-7.15 19.03) rotate(-28.09)"/></g></g></svg>