<svg xmlns="http://www.w3.org/2000/svg" viewBox="0 0 48 48"><defs><style>.cls-1{opacity:0.3;}</style></defs><g id="Layer_2" data-name="Layer 2"><path class="cls-1" d="M33.31,7.39,19,11.83a1.17,1.17,0,0,0-.82,1.11V32.42a8.48,8.48,0,0,0-3.62-1A5.83,5.83,0,0,0,10.45,33a4.84,4.84,0,0,0-1.59,3.68A4.47,4.47,0,0,0,10.19,40a5,5,0,0,0,3.59,1.28,7.73,7.73,0,0,0,3.55-.83,4.92,4.92,0,0,0,2.3-2.25,9.42,9.42,0,0,0,.66-3.92V17.68a1.19,1.19,0,0,1,.82-1.12l10.08-3.13a1.17,1.17,0,0,1,1.51,1.11V28.06a15.27,15.27,0,0,0-2.08-.75,6.4,6.4,0,0,0-1.46-.14A5.72,5.72,0,0,0,25,28.68a4.74,4.74,0,0,0-1.61,3.59,4.47,4.47,0,0,0,1.35,3.37A5,5,0,0,0,28.38,37a7.27,7.27,0,0,0,3.56-.87,5.13,5.13,0,0,0,2.23-2.16,9,9,0,0,0,.65-3.9V8.5A1.17,1.17,0,0,0,33.31,7.39Z"/></g></svg>