<?xml version="1.0" encoding="utf-8"?>
<!-- Generator: Adobe Illustrator 26.0.3, SVG Export Plug-In . SVG Version: 6.00 Build 0)  -->
<svg version="1.1" id="레이어_1" xmlns="http://www.w3.org/2000/svg" xmlns:xlink="http://www.w3.org/1999/xlink" x="0px"
	 y="0px" viewBox="0 0 120 120" style="enable-background:new 0 0 120 120;" xml:space="preserve">
<style type="text/css">
	.st0{opacity:0.3;}
</style>
<g class="st0">
	<path d="M100.8,48.7H37.9l18.4-31.9c1.3-2.2,0.5-5-1.7-6.2c-2.2-1.3-5-0.5-6.2,1.7l-21,36.4h-8.5c-8.3,0-15.2,6.8-15.2,15.2v38
		c0,8.3,6.8,15.2,15.2,15.2h82c8.3,0,15.2-6.8,15.2-15.2v-38C116,55.5,109.2,48.7,100.8,48.7z M34.9,96.8c-7.1,0-12.8-5.7-12.8-12.8
		s5.7-12.8,12.8-12.8C42,71.2,47.7,77,47.7,84S42,96.8,34.9,96.8z M84.8,96.8C77.7,96.8,72,91.1,72,84s5.7-12.8,12.8-12.8
		c7.1,0,12.8,5.7,12.8,12.8S91.8,96.8,84.8,96.8z"/>
	<path d="M102.4,37.6C102.4,37.6,102.4,37.6,102.4,37.6c2.5,0,4.6-1.7,5.4-3.9l-10.7,0C97.7,36,99.9,37.6,102.4,37.6z"/>
	<path d="M102.4,2.1C102.4,2.1,102.3,2.1,102.4,2.1c-6.7,0-12.1,5.5-12,12.1c0,2.3,0.7,4.4,1.7,6.2c0.2,0.3,0.4,0.6,0.6,0.9l0,0
		c0,0,0,0.1,0.1,0.1c0.4,0.6,3.1,4.4,4.2,9.3l11.1-0.1c1-4.9,3.6-8.7,4-9.3c0,0,0-0.1,0.1-0.1l0,0h0c0.2-0.3,0.4-0.6,0.6-0.9
		c1.1-1.8,1.7-3.9,1.7-6.2C114.4,7.4,109,2.1,102.4,2.1z"/>
</g>
</svg>
