<?xml version="1.0" encoding="utf-8"?>
<!-- Generator: Adobe Illustrator 26.0.3, SVG Export Plug-In . SVG Version: 6.00 Build 0)  -->
<svg version="1.1" id="레이어_1" xmlns="http://www.w3.org/2000/svg" xmlns:xlink="http://www.w3.org/1999/xlink" x="0px"
	 y="0px" viewBox="0 0 120 120" style="enable-background:new 0 0 120 120;" xml:space="preserve">
<style type="text/css">
	.st0{opacity:0.3;}
</style>
<g class="st0">
	<path d="M91.5,75.7c-2.2-2.2-2.2-5.9,0-8.1l2.7-2.7c6.9-6.9,6.9-18.2,0-25.1l-9-9c-6.9-6.9-18.2-6.9-25.1,0l-2.7,2.7
		c-2.2,2.2-5.9,2.2-8.1,0l-2.7-2.7c-6.9-6.9-18.2-6.9-25.1,0l-9,9c-6.9,6.9-6.9,18.2,0,25.1l2.7,2.7c2.2,2.2,2.2,5.9,0,8.1l-2.7,2.7
		c-6.9,6.9-6.9,18.2,0,25.1l9,9c6.9,6.9,18.2,6.9,25.1,0l2.7-2.7c2.2-2.2,5.9-2.2,8.1,0l2.7,2.7c6.9,6.9,18.2,6.9,25.1,0l9-9
		c6.9-6.9,6.9-18.2,0-25.1L91.5,75.7z M53.4,90.3c-6.7,0-12.2-8.4-12.2-18.7c0-10.3,5.4-18.7,12.2-18.7s12.2,8.4,12.2,18.7
		C65.5,81.9,60.1,90.3,53.4,90.3z"/>
	<g>
		<path d="M102.4,37.6C102.4,37.6,102.4,37.6,102.4,37.6c2.5,0,4.6-1.7,5.4-3.9l-10.7,0C97.7,36,99.9,37.6,102.4,37.6z"/>
		<path d="M102.4,2.1C102.4,2.1,102.3,2.1,102.4,2.1c-6.7,0-12.1,5.5-12,12.1c0,2.3,0.7,4.4,1.7,6.2c0.2,0.3,0.4,0.6,0.6,0.9l0,0
			c0,0,0,0.1,0.1,0.1c0.4,0.6,3.1,4.4,4.2,9.3l11.1-0.1c1-4.9,3.6-8.7,4-9.3c0,0,0-0.1,0.1-0.1l0,0h0c0.2-0.3,0.4-0.6,0.6-0.9
			c1.1-1.8,1.7-3.9,1.7-6.2C114.4,7.4,109,2.1,102.4,2.1z"/>
	</g>
</g>
</svg>
