<?xml version="1.0" encoding="UTF-8"?><svg xmlns="http://www.w3.org/2000/svg" viewBox="0 0 40.19 34.35"><defs><style>.d{fill:none;stroke:#6d6e71;stroke-linecap:round;stroke-linejoin:round;stroke-width:1.5px;}</style></defs><g id="a"/><g id="b"><g id="c"><polyline class="d" points="36.8 4.51 39.43 3.91 39.44 28.06 20.24 33.6 .76 28.06 .75 3.91 3.53 4.53"/><path class="d" d="M20.25,31.05s-4.06-3.46-8.43-4.61c-4.61-1.22-8.27,.3-8.27,.3V1.31s3.49-1.03,8.27-.3c4.47,.68,8.43,4.61,8.43,4.61V31.05Z"/><path class="d" d="M6.5,5.48s2.35-.36,5.55,.14c2.99,.47,5.65,2.79,5.65,2.79"/><path class="d" d="M6.5,9.18s2.35-.36,5.55,.14c2.99,.47,5.65,2.79,5.65,2.79"/><path class="d" d="M6.5,12.89s2.35-.36,5.55,.14c2.99,.47,5.65,2.79,5.65,2.79"/><path class="d" d="M6.5,17s2.35-.36,5.55,.14c2.99,.47,5.65,2.79,5.65,2.79"/><path class="d" d="M6.5,21.12s2.35-.36,5.55,.14c2.99,.47,5.65,2.79,5.65,2.79"/><path class="d" d="M34.05,5.48s-2.35-.36-5.55,.14c-2.99,.47-5.65,2.79-5.65,2.79"/><path class="d" d="M34.05,9.18s-2.35-.36-5.55,.14c-2.99,.47-5.65,2.79-5.65,2.79"/><path class="d" d="M28.5,13.03c-2.99,.47-5.65,2.79-5.65,2.79"/><path class="d" d="M20.1,31.05s4.06-3.46,8.43-4.61c4.61-1.22,8.27,.3,8.27,.3V1.31s-3.51-1.03-8.28-.3c-4.47,.68-8.43,4.61-8.43,4.61V31.05Z"/></g></g></svg>