<?xml version="1.0" encoding="utf-8"?>
<!-- Generator: Adobe Illustrator 26.0.3, SVG Export Plug-In . SVG Version: 6.00 Build 0)  -->
<svg version="1.1" id="레이어_1" xmlns="http://www.w3.org/2000/svg" xmlns:xlink="http://www.w3.org/1999/xlink" x="0px"
	 y="0px" viewBox="0 0 120 120" style="enable-background:new 0 0 120 120;" xml:space="preserve">
<style type="text/css">
	.st0{opacity:0.3;}
	.st1{fill-rule:evenodd;clip-rule:evenodd;}
</style>
<g class="st0">
	<path class="st1" d="M87.4,7.1v6.3v18.4C85.9,30.2,83,29.4,80,30c-4.1,0.8-6.9,4-6.3,7.1c0.6,3.1,4.5,4.9,8.6,4
		c3.7-0.8,6.3-3.4,6.4-6.1l0.1-0.1V13.2l21.5-4.5v18.2c-1.6-1.7-4.4-2.5-7.5-1.9c-4.1,0.8-6.9,4-6.3,7.1c0.6,3.1,4.5,4.9,8.6,4
		c3.7-0.8,6.3-3.4,6.4-6.1l0.1-0.1V8.4V2.1L87.4,7.1z"/>
	<path d="M100.8,48.7H37.9l18.4-31.9c1.3-2.2,0.5-5-1.7-6.2c-2.2-1.3-5-0.5-6.2,1.7l-21,36.4h-8.5c-8.3,0-15.2,6.8-15.2,15.2v38
		c0,8.3,6.8,15.2,15.2,15.2h82c8.3,0,15.2-6.8,15.2-15.2v-38C116,55.5,109.2,48.7,100.8,48.7z M34.9,96.8c-7.1,0-12.8-5.7-12.8-12.8
		c0-7.1,5.7-12.8,12.8-12.8C42,71.2,47.7,77,47.7,84C47.7,91.1,42,96.8,34.9,96.8z M84.8,96.8C77.7,96.8,72,91.1,72,84
		c0-7.1,5.7-12.8,12.8-12.8c7.1,0,12.8,5.7,12.8,12.8C97.6,91.1,91.8,96.8,84.8,96.8z"/>
</g>
</svg>
