<?xml version="1.0" encoding="utf-8"?>
<!-- Generator: Adobe Illustrator 26.0.3, SVG Export Plug-In . SVG Version: 6.00 Build 0)  -->
<svg version="1.1" id="레이어_1" xmlns="http://www.w3.org/2000/svg" xmlns:xlink="http://www.w3.org/1999/xlink" x="0px"
	 y="0px" viewBox="0 0 120 120" style="enable-background:new 0 0 120 120;" xml:space="preserve">
<style type="text/css">
	.st0{opacity:0.3;}
	.st1{fill-rule:evenodd;clip-rule:evenodd;}
</style>
<g class="st0">
	<path d="M80.3,81.7c-2-2-2-5.2,0-7.2l2.4-2.4c6.1-6.1,6.1-16.2,0-22.3l-8-8c-6.1-6.1-16.2-6.1-22.3,0L50,44.1c-2,2-5.2,2-7.2,0
		l-2.4-2.4c-6.1-6.1-16.2-6.1-22.3,0l-8,8c-6.1,6.1-6.1,16.2,0,22.3l2.4,2.4c2,2,2,5.2,0,7.2l-2.4,2.4c-6.1,6.1-6.1,16.2,0,22.3l8,8
		c6.1,6.1,16.2,6.1,22.3,0l2.4-2.4c2-2,5.2-2,7.2,0l2.4,2.4c6.1,6.1,16.2,6.1,22.3,0l8-8c6.1-6.1,6.1-16.2,0-22.3L80.3,81.7z
		 M46.4,94.6c-6,0-10.8-7.4-10.8-16.6c0-9.2,4.8-16.6,10.8-16.6c6,0,10.8,7.4,10.8,16.6C57.2,87.2,52.4,94.6,46.4,94.6z"/>
	<path class="st1" d="M92.7,6.5v5.6v16.4c-1.4-1.5-3.9-2.2-6.6-1.7c-3.6,0.8-6.1,3.6-5.6,6.3c0.6,2.7,4,4.3,7.6,3.6
		c3.3-0.7,5.6-3,5.7-5.5l0.1-0.1V11.9l19.1-4V24c-1.4-1.5-3.9-2.2-6.6-1.7c-3.6,0.8-6.1,3.6-5.6,6.3c0.6,2.7,4,4.3,7.6,3.6
		c3.3-0.7,5.6-3,5.7-5.5l0.1-0.1V7.6V2L92.7,6.5z"/>
</g>
</svg>
